# xmcd
#
# Track frame offsets:
#	150
#	13805
#	28573
#	47977
#	58694
#	67050
#	79211
#	87782
#	106598
#	119285
#	130543
#	144622
#	163092
#	175869
#	185924
#
# Disc length: 2635 seconds
#
# Revision: 2
# Processed by: cddbd v1.5.2PL0 Copyright (c) Steve Scherf et al.
# Submitted via: audiograbber 1.83.01
#
DISCID=ce0a490f
DTITLE=Various Artist - Country Classics Vol. 2
DYEAR=1999
DGENRE=Country
TTITLE0=Willie Nelson - Home is where you're happy
TTITLE1=Tina Turner - Good Hearted Woman
TTITLE2=Kenny Rogers - Lay it down
TTITLE3=Kitty Wells - Seaching
TTITLE4=Waylon Jennings - Abilene
TTITLE5=Lyy Anderson - I never promised you a rose garden
TTITLE6=Conway Twitty - The road that I walk
TTITLE7=Tanya Tucker - Delta dawn
TTITLE8=Freddy Fender - Mean woman blues
TTITLE9=Patsy Cline - I've loved and love again
TTITLE10=Willie Nelson - Face of a fighter
TTITLE11=Tina Turner - Lovin' him was easier
TTITLE12=Woody Guthrie - Poor boy
TTITLE13=Tammy Wynette - Womanhood
TTITLE14=Waylon Jennings - Crying
EXTD=
EXTT0=
EXTT1=
EXTT2=
EXTT3=
EXTT4=
EXTT5=
EXTT6=
EXTT7=
EXTT8=
EXTT9=
EXTT10=
EXTT11=
EXTT12=
EXTT13=
EXTT14=
PLAYORDER=
